<svg xmlns="http://www.w3.org/2000/svg" viewBox="0 0 100 100">
  <title>instagram</title>
  <path d="M88.46,0H11.54A11.54,11.54,0,0,0,0,11.54V88.45A11.54,11.54,0,0,0,11.54,100H88.47A11.54,11.54,0,0,0,100,88.45V11.54A11.54,11.54,0,0,0,88.46,0ZM50,30.77A19.23,19.23,0,1,1,30.77,50,19.23,19.23,0,0,1,50,30.77ZM87.5,83.66a3.84,3.84,0,0,1-3.85,3.84H16.35a3.84,3.84,0,0,1-3.85-3.84v-42h7.9a31.5,31.5,0,0,0-.83,4A29.13,29.13,0,0,0,19.23,50a30.77,30.77,0,1,0,61.53,0,29,29,0,0,0-.34-4.28,31.5,31.5,0,0,0-.83-4h7.9Zm0-58.25a3.85,3.85,0,0,1-3.85,3.85H74.59a3.84,3.84,0,0,1-3.85-3.85V16.35a3.84,3.84,0,0,1,3.85-3.85h9.06a3.85,3.85,0,0,1,3.85,3.85Z"/>
</svg>
