<svg xmlns="http://www.w3.org/2000/svg" viewBox="0 0 100 95.87">
  <title>linkedin</title>
  <path d="M22.72,31.15V95.87H1.29V31.15Zm1.36-20a10.36,10.36,0,0,1-3.29,8A12.25,12.25,0,0,1,12,22.37h0a11.75,11.75,0,0,1-8.61-3.21,10.71,10.71,0,0,1-3.36-8,10.71,10.71,0,0,1,3.36-8A12.25,12.25,0,0,1,12.11,0a11.89,11.89,0,0,1,8.64,3.18A10.89,10.89,0,0,1,24.07,11.19ZM100,58.65V95.87H78.57V61.26a18.93,18.93,0,0,0-2.64-10.71,9.25,9.25,0,0,0-8.07-3.93A10.71,10.71,0,0,0,61,48.87a13.89,13.89,0,0,0-4.14,5.57,15.82,15.82,0,0,0-.71,5.29V95.87H34.72q0-26,0-42.25t0-19.32V31.15H56.14v9.39h0A28.57,28.57,0,0,1,58.82,37a27.86,27.86,0,0,1,3.57-3.57,16.86,16.86,0,0,1,5.68-2.86,25.71,25.71,0,0,1,7.46-1,23.11,23.11,0,0,1,17.86,7.39Q100,44.37,100,58.65Z"/>
</svg>
