<svg xmlns="http://www.w3.org/2000/svg" viewBox="0 0 100 81.28">
  <title>twitter</title>
  <path d="M97.28,1.56a41.73,41.73,0,0,1-13.1,4.88,20.54,20.54,0,0,0-29-.84l-.48.46a19.72,19.72,0,0,0-6.06,14.47,19.26,19.26,0,0,0,.59,4.69A56.77,56.77,0,0,1,25.66,19,56.58,56.58,0,0,1,6.91,3.75,19.16,19.16,0,0,0,4.06,14.07a19.26,19.26,0,0,0,9.19,17,17.76,17.76,0,0,1-9.19-2.53v.41a19.91,19.91,0,0,0,4.6,12.91,20.29,20.29,0,0,0,11.82,7.22,26,26,0,0,1-5.47.59,19.85,19.85,0,0,1-3.91-.38,21.54,21.54,0,0,0,7.35,10.1,18.76,18.76,0,0,0,11.82,4A39.89,39.89,0,0,1,4.88,72.18Q2.53,72.18,0,72a57.55,57.55,0,0,0,31.42,9.28,58.52,58.52,0,0,0,25-5.28A52.64,52.64,0,0,0,75,62.24,65,65,0,0,0,86,43.48a57.52,57.52,0,0,0,3.91-20.6V20.32A42,42,0,0,0,100,9.57a41.51,41.51,0,0,1-11.72,3.31A20.35,20.35,0,0,0,97.28,1.56Z"/>
</svg>
